<svg viewBox="24.807 30 120.168 56.566" width="120" height="56.566">
  <path style="fill: rgba(216, 216, 216, 0); stroke: rgb(127, 202, 203); stroke-width: 3.5px; stroke-linecap: round;" d="M 7.035 79.259 C 38.918 71.228 57.521 65.726 92.87 72.188 C 98.324 73.185 107.368 70.783 112.749 72.387 C 113.6 72.641 118.541 74.353 119.292 73.652 C 119.794 73.182 118.075 71.124 117.933 70.896 C 117.227 69.758 111.474 59.333 109.506 59.883 C 109.427 59.905 112.349 62.729 112.419 62.815 C 113.138 63.703 114.011 64.424 114.753 65.287 C 116.06 66.806 120.839 73.361 119.058 75.818 C 118.043 77.218 113.728 77.428 111.862 78.179 C 109.468 79.142 105.384 81.113 103.09 82.175" transform="matrix(-0.99863, 0.052336, -0.052336, -0.99863, 148.394348, 138.151154)"></path>
  <path style="fill: rgba(216, 216, 216, 0); stroke-width: 3.5px; stroke: rgb(127, 202, 203); stroke-linecap: round;" d="M 54.918 28.057 C 54.918 37.724 59.282 46.939 59.282 56.631"></path>
  <path style="fill: rgba(216, 216, 216, 0); stroke-linecap: round; stroke-width: 3.5px; stroke: rgb(127, 202, 203);" d="M 57.537 44.877 C 55.48 44.877 53.74 44.706 52.022 46.055 C 50.768 47.041 49.66 48.529 49.138 50.047 C 48.491 51.931 47.307 55.322 48.494 57.209 C 50.518 60.424 59.224 63.998 60.563 58.357 C 60.667 57.92 57.377 45.883 57.127 45.498 C 56.956 45.236 59.769 55.636 59.702 55.399"></path>
  <path style="fill: rgba(216, 216, 216, 0); stroke-width: 3.5px; stroke-linecap: round; stroke: rgb(127, 202, 203);" d="M 69.766 50.415 C 71.799 50.415 74.506 50.522 76.539 50.522 C 77.884 50.522 79.393 50.701 80.711 50.364 C 85.129 49.236 83.581 45.312 80.989 43.105 C 77.651 40.262 71.42 41.044 70.053 44.257 C 69.28 46.073 68.023 49.625 67.694 51.511 C 67.369 53.38 69.151 55.349 69.703 57.226 C 70.21 58.949 70.432 58.933 71.861 59.86 C 75.744 62.38 76.873 60.777 81.295 59.217 C 83.004 58.615 84.307 58.108 84.509 55.958"></path>
  <path style="fill: rgba(216, 216, 216, 0); stroke-width: 3.5px; stroke: rgb(127, 202, 203); stroke-linecap: round;" d="M 92.987 59.652 C 92.987 54.274 90.8 49.24 93.593 44.148 C 94.971 41.636 98.861 41.215 100.756 43.478 C 101.659 44.557 101.972 45.989 102.622 47.223 C 104.244 50.301 105.343 53.078 105.343 56.515 C 105.343 56.738 105.343 56.069 105.343 55.847 C 105.343 55.488 105.343 55.128 105.343 54.769 C 105.343 53.565 105.181 52.384 105.181 51.173 C 105.181 47.362 104.622 42.557 109.093 40.972 C 110.337 40.531 112.462 39.949 113.78 40.386 C 114.82 40.732 115.267 41.44 115.952 42.218 C 118.59 45.216 118.919 49.66 118.919 53.513"></path>
  <path style="fill: rgba(216, 216, 216, 0); stroke-width: 3.5px; stroke: rgb(127, 202, 203); stroke-linecap: round;" d="M 130.89 37.859 C 127.297 37.859 126.768 40.426 125.801 43.245 C 125.381 44.469 124.937 46.263 125.323 47.546 C 125.766 49.02 127.491 51.871 128.868 52.616 C 129.88 53.164 131.336 53.118 132.441 53.118 C 134.839 53.118 137.008 53.304 139.125 51.918 C 145.249 47.906 140.559 37.411 133.953 37.411 C 132.864 37.411 130.808 36.995 129.961 37.754"></path>
</svg>