<svg viewBox="-4.964 -5.552 31.82 30.869" width="31.82" height="30.869">
  <defs>
    <path id="path-0" style="fill: none;" d="M 1.168 13.347 L 3.767 13.66 L 8.039 14.031 L 12.575 14.006 C 12.355 14.068 16.232 13.531 16.657 13.373 L 17.871 13.177 L 44.608 18.028"></path>
  </defs>
  <path 
    d="M -2.14 8.136 C 10.746 23.446 17.395 21.297 15.81 9.933 C 15.687 9.047 15.983 0.421 15.329 0.103 C 12.619 -1.215 12.009 5.553 11.644 6.842 C 11.411 7.662 12.256 5.288 12.629 4.556 C 13.102 3.63 13.757 -0.171 15.78 0.392 C 17.896 0.982 22.075 5.582 23.333 7.499" 
    stroke="#34CACE" 
    strokewidth="1.5" 
    transform="matrix(0.777793, -0.62852, 0.62852, 0.777793, -3.257364, 9.164576)"></path>
  <text 
    style="fill: rgb(52, 202, 206); font-family: Montserrat; font-size: 4px; text-transform: lowercase; white-space: pre;" 
    transform="matrix(0.933257, 0.048909, -0.052335, 0.99863, 0.153284, 2.675344)"><textPath href="#path-0">flip back</textPath></text>
</svg>