<svg viewBox="0 0 446 520" xmlns="http://www.w3.org/2000/svg" >
  <defs>
    <style fonts="Montserrat"></style>
  </defs>
  <rect width="445" height="446.512" rx="216" fill="#7FCACB"></rect>
  <path fill="#fff" d="M 291.162 435.174 C 303.33 435.174 301.591 450 301.591 450 L 143.409 450 C 143.409 450 141.67 435.174 153.838 435.174 C 165.137 435.174 167.744 429.942 167.744 424.709 L 166.875 381.105 C 105.166 395.058 92.129 356.686 92.129 356.686 C 81.699 330.523 67.793 324.419 67.793 324.419 C 46.934 310.465 68.662 310.465 68.662 310.465 C 91.26 312.209 103.428 333.14 103.428 333.14 C 122.549 367.151 154.707 357.558 167.744 352.326 C 169.482 337.5 175.566 327.907 181.65 321.802 C 132.109 316.57 80.83 297.384 80.83 211.919 C 80.83 187.5 89.521 167.442 103.428 151.744 C 100.82 146.512 93.867 123.837 106.036 93.314 C 106.036 93.314 124.287 87.209 166.875 115.988 C 203.379 105.523 241.621 105.523 278.125 115.988 C 320.713 87.209 338.965 93.314 338.965 93.314 C 351.133 123.837 344.18 146.512 341.572 151.744 C 355.479 167.442 364.17 187.5 364.17 211.919 C 364.17 297.384 312.021 316.57 262.48 321.802 C 271.172 328.779 278.125 342.733 278.125 363.663 L 277.256 424.709 C 277.256 429.942 279.863 435.174 291.162 435.174 Z"></path>
  <text style="fill: #fff; font-family: Montserrat; font-size: 80px; font-weight: 600; whiteSpace: pre; text-anchor: middle;" x="216" y="510">explore code</text>
</svg>
