<svg xmlns="http://www.w3.org/2000/svg" viewBox="3 3 50 50" width="50" height="50">
<path d="M 44.667 53 L 11.333 53 C 6.731 53 3 49.269 3 44.667 L 3 11.333 C 3 6.731 6.731 3 11.333 3 L 44.667 3 C 49.269 3 53 6.731 53 11.333 L 53 44.667 C 53 49.269 49.269 53 44.667 53 Z" opacity="inherit" style=""></path>
  <g transform="matrix(3.988769, 0, 0, 3.428571, -25.878353, -15.142852)">
    <path d="M 12.608 19 C 11.846 19 11.387 18.652 11.118 18.278 C 10.875 17.94 11.027 17.459 11.407 17.29 C 11.675 17.17 12.007 17.208 12.202 17.429 C 12.28 17.518 12.387 17.584 12.534 17.584 C 12.9 17.584 13.039 17.325 13.039 16.626 L 13.039 12.952 C 13.039 12.54 13.372 12.206 13.783 12.206 C 14.194 12.206 14.527 12.54 14.527 12.952 L 14.527 16.757 C 14.526 17.471 14.374 19 12.608 19 Z" style="fill: rgb(255, 255, 255);"></path>
    <path d="M 18.714 13.193 C 18.529 13.456 18.181 13.579 17.888 13.447 C 17.764 13.391 17.617 13.351 17.451 13.351 C 17.283 13.351 16.796 13.416 16.796 14.037 C 16.796 15.092 19.023 14.815 19.023 16.838 C 19.023 18.004 18.299 19 16.955 19 C 16.407 19 15.977 18.853 15.635 18.658 C 15.307 18.471 15.221 18.034 15.434 17.721 L 15.454 17.692 C 15.638 17.422 15.997 17.31 16.287 17.461 C 16.457 17.55 16.666 17.619 16.909 17.619 C 17.455 17.619 17.555 17.156 17.555 16.944 C 17.555 15.84 15.356 16.224 15.356 14.101 C 15.356 12.89 16.194 12 17.396 12 C 17.841 12 18.188 12.092 18.454 12.212 C 18.829 12.382 18.951 12.856 18.714 13.193 Z" style="fill: rgb(255, 255, 255);"></path>
  </g>
</svg>
