<?xml version="1.0" encoding="iso-8859-1"?>
<!-- Generator: Adobe Illustrator 19.0.0, SVG Export Plug-In . SVG Version: 6.00 Build 0)  -->
<svg version="1.1" id="Layer_1" xmlns="http://www.w3.org/2000/svg" xmlns:xlink="http://www.w3.org/1999/xlink" x="0px" y="0px"
	 viewBox="0 0 512.004 512.004" style="enable-background:new 0 0 512.004 512.004;" xml:space="preserve">
<path style="fill:#2D2D2D;" d="M0.004,355.202v-324c0-5.6,4.8-10.4,10.4-10.4h491.2c5.6,0,10.4,4.8,10.4,10.4v324
	C512.004,355.202-1.596,353.602,0.004,355.202z"/>
<g>
	<path style="fill:#BCBCBC;" d="M0.004,355.202v41.6c0,5.6,4.8,10.4,10.4,10.4h491.2c5.6,0,10.4-4.8,10.4-10.4v-41.6
		C512.004,355.202-1.596,356.802,0.004,355.202z"/>
	<rect x="146.404" y="480.802" style="fill:#BCBCBC;" width="219.2" height="10.4"/>
</g>
<polygon style="fill:#2D2D2D;" points="328.804,480.802 183.204,480.802 193.604,407.202 318.404,407.202 "/>
<rect x="20.804" y="41.602" style="fill:#FFFFFF;" width="470.4" height="292.8"/>
<g>
	<path style="fill:#E81241;" d="M105.604,155.202l9.6,37.6c2.4,8,4,16,5.6,23.2h0.8c1.6-7.2,4-15.2,6.4-23.2l12-37.6h11.2l11.2,36.8
		c2.4,8.8,4.8,16.8,6.4,24h0.8c1.6-7.2,3.2-15.2,5.6-24l10.4-36.8h13.6l-24,73.6h-12l-11.2-35.2c-2.4-8-4.8-15.2-6.4-24l0,0
		c-1.6,8.8-4,16.8-6.4,24l-12,35.2h-12l-22.4-73.6L105.604,155.202L105.604,155.202z"/>
	<path style="fill:#E81241;" d="M219.204,155.202l9.6,37.6c2.4,8,4,16,5.6,23.2h0.8c1.6-7.2,4-15.2,6.4-23.2l12-37.6h11.2l11.2,36.8
		c2.4,8.8,4.8,16.8,6.4,24h0.8c1.6-7.2,3.2-15.2,5.6-24l10.4-36.8h13.6l-24,73.6h-12l-11.2-35.2c-2.4-8-4.8-15.2-6.4-24l0,0
		c-1.6,8.8-4,16.8-6.4,24l-12.8,36h-12l-22.4-73.6h13.6V155.202z"/>
	<path style="fill:#E81241;" d="M332.804,155.202l9.6,37.6c2.4,8,4,16,5.6,23.2h0.8c1.6-7.2,4-15.2,6.4-23.2l12-37.6h11.2l11.2,36.8
		c2.4,8.8,4.8,16.8,6.4,24h0.8c1.6-7.2,3.2-15.2,5.6-24l10.4-36.8h13.6l-24,73.6h-12l-11.2-35.2c-2.4-8-4.8-15.2-6.4-24l0,0
		c-1.6,8.8-4,16.8-6.4,24l-12,35.2h-12l-22.4-73.6L332.804,155.202L332.804,155.202z"/>
</g>
<g>
</g>
<g>
</g>
<g>
</g>
<g>
</g>
<g>
</g>
<g>
</g>
<g>
</g>
<g>
</g>
<g>
</g>
<g>
</g>
<g>
</g>
<g>
</g>
<g>
</g>
<g>
</g>
<g>
</g>
</svg>
