<svg viewBox="20.772 16.169 154.69 38.866" width="154.69" height="48.866">
  <path style="fill: rgba(216, 216, 216, 0); stroke: rgb(127, 202, 203); stroke-width: 4.2px; stroke-linecap: round;" d="M 47.257 51.677 C 43.883 42.63 30.033 29.787 24.164 43.688 C 18.036 58.201 43.894 63.691 43.894 49.966 C 43.894 49.252 44.447 51.282 44.674 51.959 C 45.141 53.35 45.542 54.957 45.611 56.426 C 46.05 65.73 43.383 73.586 35.376 78.69 C 32.59 80.466 27.754 82.739 24.377 81.031 C 18.884 78.251 16.485 70.92 14.005 65.821"></path>
  <path style="fill: rgba(216, 216, 216, 0); stroke: rgb(127, 202, 203); stroke-width: 4.2px; stroke-linecap: round;" d="M 53.452 46.793 C 53.172 44.016 51.638 41.322 51.638 38.437 L 53.452 46.793 Z M 54.015 55.293 L 53.452 46.793 C 53.733 49.584 54.015 52.378 54.015 55.293 Z M 51.42 31.86 C 51.884 31.61 50.951 33.017 50.987 33.575 C 51.035 34.322 48.514 34.041 48.205 33.873 C 47.892 33.704 50.793 32.197 51.42 31.86 Z"></path>
  <path style="fill: rgba(216, 216, 216, 0); stroke: rgb(127, 202, 203); stroke-width: 4.2px; stroke-linecap: round;" d="M 64.16 21.132 C 64.16 26.511 63.402 32.582 64.271 37.919 C 65.178 43.485 67.019 47.829 67.019 53.601"></path>
  <path style="fill: rgba(216, 216, 216, 0); stroke: rgb(127, 202, 203); stroke-width: 4.2px; stroke-linecap: round;" d="M 58.6 33.406 C 63.009 33.154 66.955 31.632 71.321 31.632"></path>
  <path style="fill: rgba(216, 216, 216, 0); stroke: rgb(127, 202, 203); stroke-width: 4.2px; stroke-linecap: round;" d="M 79.906 17.138 C 79.906 28.67 79.906 40.201 79.906 51.733"></path>
  <path style="fill: rgba(216, 216, 216, 0); stroke: rgb(127, 202, 203); stroke-width: 4.2px; stroke-linecap: round;" d="M 82.135 31.376 C 84.438 31.376 87.562 30.874 89.745 31.826 C 95.708 34.426 96.868 43.316 96.954 49.25"></path>
  <path style="fill: rgba(216, 216, 216, 0); stroke: rgb(127, 202, 203); stroke-width: 4.2px; stroke-linecap: round;" d="M 103.118 31.668 C 103.118 36.264 108.778 51.343 116.818 47.595 C 123.098 44.667 122.398 36.09 122.398 30.74"></path>
  <path style="fill: rgba(216, 216, 216, 0); stroke: rgb(127, 202, 203); stroke-width: 4.2px; stroke-linecap: round;" d="M 131.133 17.108 C 131.133 21.98 131.133 26.851 131.133 31.723 C 131.133 34.58 131.049 37.428 131.474 40.264 C 131.796 42.406 132.488 44.547 132.741 46.684 C 132.848 47.582 132.315 50.05 132.932 49.389 C 135.054 47.116 141.071 48.6 143.649 45.537 C 149.896 38.112 138.515 33.292 131.921 34.997"></path>
  <path style="fill: rgba(216, 216, 216, 0); stroke: rgb(127, 202, 203); stroke-width: 4.2px; stroke-linecap: round;" d="M 67.478 65.8 C 99.361 57.769 99.673 55.255 135.022 61.717 C 140.476 62.714 149.52 60.312 154.901 61.916 C 155.752 62.17 160.693 63.882 161.444 63.181 C 161.946 62.711 160.227 60.653 160.085 60.425 C 159.379 59.287 153.626 48.862 151.658 49.412 C 151.579 49.434 154.501 52.258 154.571 52.344 C 155.29 53.232 156.163 53.953 156.905 54.816 C 158.212 56.335 162.991 62.89 161.21 65.347 C 160.195 66.747 155.88 66.957 154.014 67.708 C 151.62 68.671 147.536 70.642 145.242 71.704" transform="matrix(0.994522, 0.104528, -0.104528, 0.994522, 6.956366, -11.64099)"></path>
</svg>
