<svg viewBox="0 0 180 120" width="180" height="60">
  <path style="fill: rgba(216, 216, 216, 0); stroke: rgb(127, 202, 203); stroke-width: 4.2px; stroke-linecap: round; stroke-linejoin: round;" d="M 21.85 9.331 C 17.545 6.15 12.1 5.861 8.479 7.964 C 7.553 8.502 6.938 11.029 6.569 11.872 C 5.35 14.658 4.341 19.342 6.98 21.571 C 10.358 24.424 20.873 26.816 22.103 20.474 C 22.835 16.702 21.363 12.937 21.363 9.352 C 21.363 9.062 21.442 9.927 21.46 10.217 C 21.526 11.278 21.537 10.397 21.584 11.63 C 21.628 12.793 21.549 13.949 21.646 15.111 C 21.915 18.307 24.613 24.344 26.672 26.403"></path>
  <path style="fill: rgb(216, 216, 216); stroke-linecap: round; stroke-width: 4.2px; paint-order: fill; stroke: rgb(127, 202, 203);" d="M 33.933 10.576 C 34.328 19.298 34.979 28.475 34.979 37.282"></path>
  <path style="fill: rgba(216, 216, 216,0); stroke-linecap: round; stroke-width: 4.2px; paint-order: fill; stroke: rgb(127, 202, 203);" d="M 34.052 15.199 C 34.284 9.47 35.979 10.029 41.339 8.862 C 43.202 8.456 46.638 10.03 47.443 12.414 C 49.018 17.076 49.196 19.77 46.005 23.568 C 43.268 26.827 38.753 26.686 35.652 23.684"></path>
  <path style="fill: rgb(216, 216, 216); stroke-linecap: round; stroke-width: 4.2px; paint-order: fill; stroke: rgb(127, 202, 203);" d="M 57.917 10.747 C 58.312 19.469 55.983 27.432 55.983 36.239"></path>
  <path style="fill: rgba(216, 216, 216,0); stroke-linecap: round; stroke-width: 4.2px; paint-order: fill; stroke: rgb(127, 202, 203);" d="M 59.089 15.292 C 59.321 9.563 60.072 8.173 65.432 7.006 C 67.295 6.6 71.18 7.279 71.985 9.663 C 73.56 14.325 73.262 18.648 70.071 22.446 C 67.334 25.705 61.83 28.273 58.729 25.271"></path>
  <path style="fill: rgba(216, 216, 216,0); stroke-width: 4.2px; stroke: rgb(127, 202, 203); stroke-linecap: round;" d="M 13.632 51.121 C 12.343 49.388 10.833 47.646 8.793 46.786 C 3.595 44.594 2.114 50.925 3.12 54.741 C 4.21 58.874 8.999 59.046 12.246 60.674 C 13.382 61.244 15.522 62.088 15.688 63.598 C 15.762 64.271 14.459 65.328 14.045 65.74 C 11.123 68.648 7.491 68.207 4.396 66.311"></path>
  <path style="fill: rgba(216, 216, 216,0); stroke-width: 4.2px; stroke: rgb(127, 202, 203); stroke-linecap: round;" d="M 29.309 53.511 C 27.591 53.211 25.557 52.023 23.763 52.338 C 23.115 52.451 22.715 53.502 22.458 54.016 C 21.52 55.892 21.342 58.534 21.744 60.57 C 22.58 64.808 23.578 67.48 27.549 68.521 C 29.185 68.95 31.254 68.991 32.933 68.506 C 34.83 67.959 35.264 67.937 36.127 66.328"></path>
  <path style="fill: rgba(216, 216, 216,0); stroke-width: 4.2px; stroke: rgb(127, 202, 203); stroke-linecap: round;" d="M 39.5 54.205 C 39.5 56.723 40.486 60.581 41.094 63.032 C 41.238 63.611 42.063 66.221 42.249 66.83 C 42.571 67.885 43.301 69.382 43.301 70.537 C 43.301 70.713 43.248 70.189 43.227 70.014 C 43.185 69.672 43.153 69.339 43.153 68.995 C 43.153 68.129 42.377 67.171 42.032 66.412 C 41.304 64.81 41.641 63.269 41.264 61.642 C 40.986 60.445 40.428 58.838 40.804 57.581 C 41.482 55.312 45.131 53.341 47.301 53.104 C 48.721 52.95 50.707 53.732 50.707 55.369"></path>
  <path style="fill: rgba(216, 216, 216,0); stroke-width: 4.2px; stroke: rgb(127, 202, 203); stroke-linecap: round;" d="M 56.656 62.478 C 58.01 62.562 59.337 62.668 60.696 62.668 C 61.58 62.668 62.375 62.369 63.241 62.357 C 64.415 62.341 66.339 60.582 65.859 58.744 C 64.428 53.267 58.162 55.234 56.742 58.486 C 53.891 65.016 60.328 72.146 66.659 70.297 C 67.949 69.92 69.84 67.811 70.717 66.715"></path>
  <path style="fill: rgba(216, 216, 216,0); stroke-width: 4.2px; stroke: rgb(127, 202, 203); stroke-linecap: round;" d="M 97.453 58.049 C 97.453 59.484 97.576 60.913 97.624 62.347 C 97.659 63.379 97.713 64.385 97.891 65.405 C 98.048 66.304 98.185 67.203 98.336 68.102 C 98.386 68.402 98.381 68.701 98.429 68.999 C 98.456 69.165 98.46 69.67 98.46 69.502 C 98.46 66.553 98.46 63.605 98.46 60.656 C 98.46 59.421 98.248 57.992 98.902 56.895 C 100.073 54.931 104.165 55.136 105.881 56.376 C 107.617 57.631 110.13 60.439 110.941 62.479 C 111.464 63.794 111.803 66.776 111.803 68.154"></path>
  <path style="fill: rgba(216, 216, 216,0); stroke-width: 4.2px; stroke: rgb(127, 202, 203); stroke-linecap: round;" d="M 129.938 56.106 C 128.72 55.554 127.51 54.857 126.21 54.51 C 123.208 53.71 115.87 55.615 118.044 60.261 C 118.459 61.147 120.387 61.342 121.182 61.568 C 123.115 62.118 126.251 62.78 127.798 64.096 C 128.976 65.097 128.276 67.119 127.079 67.712 C 124.56 68.959 120.794 69.55 118.073 68.823"></path>
  <path style="fill: rgba(216, 216, 216,0); stroke-width: 4.2px; stroke: rgb(127, 202, 203); stroke-linecap: round;" d="M 136.264 49.878 C 136.264 52.381 136.059 54.981 136.35 57.469 C 136.678 60.275 136.901 62.923 136.901 65.748 C 136.901 66.716 136.901 67.683 136.901 68.651 C 136.901 68.958 136.901 69.265 136.901 69.572 C 136.901 69.739 136.901 70.242 136.901 70.074 C 136.901 67.354 136.334 63.281 137.456 60.687 C 138.116 59.16 141.33 58.319 142.395 59.8 C 142.886 60.483 142.926 61.459 143.243 62.229 C 144.12 64.362 144.968 66.069 144.968 68.382"></path>
  <path style="fill: rgba(216, 216, 216,0); stroke-width: 4.2px; stroke: rgb(127, 202, 203); stroke-linecap: round;" d="M 155.792 58.636 C 155.304 58.636 153.139 58.327 152.672 58.671 C 151.912 59.231 152.297 61.264 152.267 62.051 C 152.151 65.053 151.632 67.966 155.241 68.888 C 156.37 69.177 157.892 69.433 159.027 69.017 C 161.026 68.287 162.322 65.441 161.148 63.579 C 159.144 60.401 156.385 59.579 153.057 58.484"></path>
  <path style="fill: rgb(216, 216, 216); stroke-width: 4.2px; stroke: rgb(127, 202, 203); stroke-linecap: round;" d="M 170.761 48.848 C 170.761 52.807 170.552 56.835 170.8 60.786 C 171.006 64.062 172.262 67.18 172.262 70.484"></path>
  <path style="fill: rgb(216, 216, 216); stroke-width: 4.2px; stroke: rgb(127, 202, 203); stroke-linecap: round;" d="M 164.689 54.044 C 167.629 54.044 170.586 54.137 173.524 54.044 C 174.663 54.008 175.655 53.47 176.761 53.47"></path>
  <path style="fill: rgba(216, 216, 216,0); stroke-width: 4.2px; stroke: rgb(127, 202, 203); stroke-linecap: round;" d="M 76.447 62.103 C 77.801 62.187 80.502 62.293 81.861 62.293 C 82.745 62.293 83.54 61.994 84.406 61.982 C 85.58 61.966 87.178 59.94 86.11 58.369 C 83.757 54.907 76.378 53.874 76.527 58.168 C 76.774 65.289 78.879 71.047 85.21 69.198 C 86.5 68.821 89.336 67.382 90.213 66.286"></path>
  <path style="fill: rgba(216, 216, 216, 0); stroke: rgb(127, 202, 203); paint-order: fill markers; stroke-linecap: round; stroke-width: 4.2px;" d="M 74.085 69.41 C 77.583 89.462 92.635 76.874 106.321 88.62 C 109.27 91.151 111.44 95.55 112.415 99.293 C 112.924 101.248 116.507 113.358 118.344 113.503 C 122.763 113.852 127.975 97.027 125.95 100.886 C 123.836 104.916 122.397 114.174 116.954 113.555 C 113.161 113.124 100.698 103.101 102.407 98.312" transform="matrix(0.90673, -0.421712, 0.421712, 0.90673, -28.499418, 50.043362)"></path>
</svg>